PathFileType	4	(X/Y/Z)	/Users/itak/Documents/Research/Walk-IL/dataset/trc/00142_00007.trc
DataRate	CameraRate	NumFrames	NumMarkers	Units	OrigDataRate	OrigDataStartFrame	OrigNumFrames
100.000000	100.000000	4	53	mm	100.000000	202	540
Frame#	Time	RPSI			LPSI			L3			STRN			T10			C7			CLAV			RBAK			LBAK			LSHO			LUPA			LAEL			LAOL			LWTS			LWPS			LFRA			LIFD			LHPS			LHTS			RSHO			RUPA			RAEL			RAOL			RWTS			RWPS			RFRA			RIFD			RHTS			RHPS			RBHD			LFHD			RFHD			LBHD			LHIP			RHIP			RASI			LASI			LKNE			LTHI			LANK			LTIP			LTOE			LMT1			LMT5			LHEE			RKNE			RTHI			RANK			RTIP			RTOE			RMT1			RMT5			RHEE			
		X1	Y1	Z1	X2	Y2	Z2	X3	Y3	Z3	X4	Y4	Z4	X5	Y5	Z5	X6	Y6	Z6	X7	Y7	Z7	X8	Y8	Z8	X9	Y9	Z9	X10	Y10	Z10	X11	Y11	Z11	X12	Y12	Z12	X13	Y13	Z13	X14	Y14	Z14	X15	Y15	Z15	X16	Y16	Z16	X17	Y17	Z17	X18	Y18	Z18	X19	Y19	Z19	X20	Y20	Z20	X21	Y21	Z21	X22	Y22	Z22	X23	Y23	Z23	X24	Y24	Z24	X25	Y25	Z25	X26	Y26	Z26	X27	Y27	Z27	X28	Y28	Z28	X29	Y29	Z29	X30	Y30	Z30	X31	Y31	Z31	X32	Y32	Z32	X33	Y33	Z33	X34	Y34	Z34	X35	Y35	Z35	X36	Y36	Z36	X37	Y37	Z37	X38	Y38	Z38	X39	Y39	Z39	X40	Y40	Z40	X41	Y41	Z41	X42	Y42	Z42	X43	Y43	Z43	X44	Y44	Z44	X45	Y45	Z45	X46	Y46	Z46	X47	Y47	Z47	X48	Y48	Z48	X49	Y49	Z49	X50	Y50	Z50	X51	Y51	Z51	X52	Y52	Z52	X53	Y53	Z53	

203	2.02	-593.4398193359375	1109.53173828125	1232.5185546875	-585.793701171875	1116.509643554688	1097.15185546875	-595.6065673828125	1151.0986328125	1166.517822265625	-359.7094421386719	1331.160766601562	1174.170288085938	-613.5325927734375	1301.500610351562	1180.817016601562	-561.8837280273438	1591.455444335938	1161.730346679688	-386.3202514648438	1467.987182617188	1164.564819335938	-627.9384765625	1414.695190429688	1255.297973632812	-574.0247192382812	1569.441284179688	1060.900268554688	-494.0599365234375	1544.736328125	988.7798461914062	-534.9199829101562	1414.658447265625	923.5729370117188	-556.9559936523438	1197.652587890625	904.2625122070312	-614.1828002929688	1196.114990234375	973.0098876953125	-495.5074768066406	925.01416015625	932.4727172851562	-584.47412109375	914.564208984375	918.9523315429688	-560.3842163085938	1080.063354492188	898.7277221679688	-513.8944702148438	730.3955688476562	948.6326293945312	-570.2603759765625	835.904296875	914.9942626953125	-499.7810668945312	835.1527709960938	921.7332763671875	-498.3425598144531	1571.531127929688	1340.387573242188	-516.07958984375	1501.086059570312	1407.838623046875	-534.7184448242188	1207.582763671875	1437.535522460938	-547.3399047851562	1203.198486328125	1342.389282226562	-393.55029296875	961.5358276367188	1423.938598632812	-466.2589416503906	947.3552856445312	1461.046752929688	-510.6318359375	1133.507080078125	1455.062744140625	-367.9734497070312	766.6926879882812	1416.968017578125	-364.638427734375	854.154296875	1433.748291015625	-429.3821716308594	847.6561889648438	1465.458984375	-474.8577880859375	1764.785888671875	1235.360595703125	-363.1534423828125	1799.981689453125	1048.167236328125	-317.8584899902344	1814.787109375	1169.569946289062	-529.1305541992188	1754.784301757812	1111.94482421875	-481.2108764648438	1027.69482421875	990.5030517578125	-482.1217956542969	1001.291687011719	1356.078002929688	-391.1741027832031	1070.096313476562	1314.02197265625	-380.7473754882812	1082.458251953125	1048.608032226562	-318.7230529785156	545.9393310546875	1048.496215820312	-386.1321716308594	675.1030883789062	1006.160888671875	-285.1824035644531	36.15559387207031	1084.732177734375	-343.9615783691406	281.87158203125	1038.934326171875	-61.37578201293945	71.11751556396484	1127.467895507812	-133.3659057617188	61.16250228881836	1166.829956054688	-164.5934448242188	46.47388076782227	1056.027221679688	-350.8292541503906	34.45356750488281	1150.1025390625	-577.9829711914062	517.953857421875	1305.9228515625	-495.9931640625	788.4918823242188	1338.805297851562	-861.8222045898438	70.04883575439453	1277.543579101562	-650.8648071289062	397.264404296875	1313.410522460938	-631.2423706054688	43.48047256469727	1236.138916015625	-689.8707885742188	39.8744010925293	1193.076538085938	-733.443359375	42.8820915222168	1306.461181640625	-916.7378540039062	91.39631652832031	1228.076416015625	
204	2.03	-584.4594116210938	1110.938598632812	1230.587524414062	-576.5906372070312	1118.294799804688	1095.169067382812	-586.6760864257812	1152.788696289062	1164.580322265625	-351.0213623046875	1333.08447265625	1172.483276367188	-604.80029296875	1303.087280273438	1179.01123046875	-553.6551513671875	1593.06005859375	1159.623046875	-377.9236450195312	1469.824584960938	1162.690063476562	-619.4244384765625	1416.309814453125	1253.417724609375	-565.6881713867188	1570.902587890625	1058.822998046875	-485.5991516113281	1546.267822265625	986.7544555664062	-526.1666259765625	1416.082397460938	921.6507568359375	-547.7284545898438	1199.019287109375	902.5862426757812	-604.9697875976562	1197.3505859375	971.3475952148438	-485.5837707519531	926.5870361328125	931.0098876953125	-574.5662231445312	915.855712890625	917.5462036132812	-550.8792724609375	1081.437622070312	897.1600952148438	-503.4425048828125	731.9160766601562	947.3646850585938	-560.1072387695312	837.2843017578125	913.66015625	-489.604736328125	836.6986694335938	920.3698120117188	-490.0934143066406	1573.503051757812	1338.301879882812	-507.7510070800781	1503.141357421875	1405.841796875	-526.55322265625	1209.72412109375	1435.653686523438	-539.1852416992188	1205.360107421875	1340.4169921875	-386.3594665527344	963.189697265625	1422.35791015625	-459.0971984863281	949.3314819335938	1459.497680664062	-502.8026733398438	1135.64453125	1453.258422851562	-361.5704040527344	768.205078125	1415.498657226562	-357.8526000976562	855.7083740234375	1432.241943359375	-422.63037109375	849.4661254882812	1463.935791015625	-466.5888671875	1766.731079101562	1233.082153320312	-355.1635131835938	1801.607177734375	1045.691040039062	-309.7317810058594	1816.592163085938	1167.003662109375	-521.0466918945312	1756.519775390625	1109.74462890625	-471.8635864257812	1029.66650390625	988.5449829101562	-473.1494140625	1002.721618652344	1354.195922851562	-382.2761840820312	1071.8115234375	1312.236206054688	-371.5197448730469	1084.43408203125	1046.860473632812	-313.6182250976562	546.365966796875	1047.04736328125	-379.6064453125	676.2918701171875	1005.059875488281	-284.9258728027344	35.88613891601562	1084.44921875	-341.4894104003906	282.2997741699219	1037.951782226562	-60.58977508544922	69.41015625	1127.388671875	-132.8977661132812	60.51214218139648	1166.863891601562	-164.1419372558594	45.64219284057617	1055.859741210938	-350.6500854492188	34.84387588500977	1149.781982421875	-567.21875	518.7754516601562	1305.366455078125	-486.2001647949219	789.8297729492188	1337.202880859375	-859.9003295898438	74.84662628173828	1277.988647460938	-642.4976806640625	399.2063293457031	1313.3291015625	-630.968994140625	43.2541618347168	1236.173706054688	-689.1712646484375	40.63181686401367	1193.188110351562	-732.4255981445312	43.29944229125977	1306.425537109375	-913.8527221679688	98.79357147216797	1228.933227539062	
205	2.04	-575.348388671875	1112.484985351562	1228.6484375	-567.3117065429688	1120.153198242188	1093.178833007812	-577.6435546875	1154.559448242188	1162.591918945312	-342.2864074707031	1335.145751953125	1170.728881835938	-596.026123046875	1304.772827148438	1177.091064453125	-545.4376831054688	1594.755004882812	1157.435180664062	-369.4995727539062	1471.799926757812	1160.76171875	-610.8695678710938	1417.988647460938	1251.443603515625	-557.3347778320312	1572.459594726562	1056.661254882812	-477.0645141601562	1547.938720703125	984.656982421875	-517.3103637695312	1417.654296875	919.6275634765625	-538.3387451171875	1200.519775390625	900.8052978515625	-595.5924682617188	1198.651245117188	969.5330810546875	-475.3905334472656	928.3265991210938	929.5230102539062	-564.3574829101562	917.2791137695312	916.0403442382812	-541.1591796875	1082.942504882812	895.4916381835938	-492.6209411621094	733.5989379882812	946.1013793945312	-549.6326904296875	838.7825927734375	912.27734375	-479.1198120117188	838.4103393554688	918.989013671875	-481.8811340332031	1575.582641601562	1336.136962890625	-499.4583740234375	1505.317749023438	1403.7666015625	-518.48681640625	1211.985595703125	1433.71142578125	-531.0780029296875	1207.643676757812	1338.401245117188	-379.0893249511719	965.0557250976562	1420.770751953125	-451.8517456054688	951.4699096679688	1457.915283203125	-495.0229187011719	1137.913208007812	1451.425415039062	-354.933349609375	769.9517822265625	1413.968139648438	-350.9185180664062	857.484619140625	1430.705688476562	-415.7414855957031	851.4522094726562	1462.366943359375	-458.3067321777344	1768.770141601562	1230.765258789062	-347.131103515625	1803.330078125	1043.191040039062	-301.5723266601562	1818.469604492188	1164.419677734375	-512.9319458007812	1758.389038085938	1107.494384765625	-462.4100646972656	1031.663696289062	986.5587768554688	-464.0554809570312	1004.308837890625	1352.290649414062	-373.2632141113281	1073.684814453125	1310.375854492188	-362.2421264648438	1086.4873046875	1045.03857421875	-308.6668701171875	546.8382568359375	1045.3818359375	-373.2530517578125	677.5223388671875	1003.871765136719	-284.7160339355469	35.56325912475586	1084.050048828125	-339.2045288085938	282.7732543945312	1036.792358398438	-59.97549438476562	68.15103149414062	1127.2041015625	-132.5869903564453	60.25331115722656	1166.806640625	-163.7278900146484	44.96473693847656	1055.629272460938	-350.5108642578125	35.13893127441406	1149.351806640625	-555.733154296875	519.6010131835938	1304.98046875	-476.0679626464844	791.2885131835938	1335.623046875	-857.6259765625	79.98558807373047	1278.382080078125	-633.4889526367188	401.2859802246094	1313.392578125	-630.7489013671875	43.01453399658203	1236.184326171875	-688.4278564453125	41.39736938476562	1193.221313476562	-731.3257446289062	43.80854797363281	1306.379638671875	-910.353271484375	106.7318954467773	1229.7705078125	
206	2.05	-566.1287841796875	1114.127807617188	1226.705932617188	-557.9683837890625	1122.027709960938	1091.1875	-568.5174560546875	1156.355834960938	1160.55517578125	-333.5140991210938	1337.287109375	1168.909790039062	-587.212646484375	1306.493530273438	1175.050170898438	-537.2426147460938	1596.488525390625	1155.160522460938	-361.055908203125	1473.857666015625	1158.784790039062	-602.2911376953125	1419.678466796875	1249.36328125	-548.9716186523438	1574.05859375	1054.4140625	-468.4704284667969	1549.695678710938	982.4920654296875	-508.3594055175781	1419.31884765625	917.5023193359375	-528.8116455078125	1202.103271484375	898.9144897460938	-586.0667114257812	1199.9560546875	967.5567016601562	-464.9365539550781	930.1852416992188	928.0064697265625	-553.8543701171875	918.778076171875	914.4299926757812	-531.242431640625	1084.523803710938	893.716064453125	-481.4217529296875	735.3991088867188	944.832275390625	-538.8358764648438	840.3427734375	910.8368530273438	-468.3285827636719	840.2405395507812	917.5830078125	-473.7230834960938	1577.711791992188	1333.893188476562	-491.2290344238281	1507.556396484375	1401.614868164062	-510.5343322753906	1214.308349609375	1431.707885742188	-523.0205688476562	1209.984741210938	1336.35400390625	-371.72900390625	967.0810546875	1419.18994140625	-444.5106506347656	953.7120361328125	1456.310424804688	-487.2894592285156	1140.257690429688	1449.5615234375	-348.0310668945312	771.8848876953125	1412.398681640625	-343.8114318847656	859.4368286132812	1429.162963867188	-408.6983337402344	853.5640258789062	1460.7607421875	-450.0402526855469	1770.84912109375	1228.419799804688	-339.0697631835938	1805.103393554688	1040.679321289062	-293.4022521972656	1820.3740234375	1161.832397460938	-504.805908203125	1760.3369140625	1105.201171875	-452.8664245605469	1033.627807617188	984.5565185546875	-454.8498229980469	1006.007873535156	1350.35693359375	-364.1504211425781	1075.6669921875	1308.442138671875	-352.9237670898438	1088.555541992188	1043.1513671875	-303.8707885742188	547.2890625	1043.576782226562	-367.037841796875	678.7283325195312	1002.612609863281	-284.5386962890625	35.20854187011719	1083.576293945312	-337.0493774414062	283.2547912597656	1035.500854492188	-59.48887252807617	67.18989562988281	1126.999267578125	-132.4088134765625	60.25441741943359	1166.736450195312	-163.3263549804688	44.40073776245117	1055.40380859375	-350.4085083007812	35.3682746887207	1148.832397460938	-543.52685546875	520.397216796875	1304.787353515625	-465.6204833984375	792.8313598632812	1334.086181640625	-854.9192504882812	85.50945281982422	1278.792724609375	-623.7998657226562	403.4533386230469	1313.619873046875	-630.6021728515625	42.77262115478516	1236.195068359375	-687.6605224609375	42.16108322143555	1193.173828125	-730.1458740234375	44.41078186035156	1306.336547851562	-906.17333984375	115.1384429931641	1230.585205078125	
